<?xml version="1.0" encoding="UTF-8"?>
<svg id="dyonmulya-datacatalogs" xmlns="http://www.w3.org/2000/svg" viewBox="0 0 512 512">
  <!--
    Data Catalogs Logo
    Copyright (c) 2025 Dyo Wiranata Mulya <github.com/dyonmulya> 
   -->
  <title>Data Catalogs Logo - Dyo Wiranata Mulya</title>
  <path d="M256,86.6c-5.32,0-9.62-4.31-9.62-9.62v-19.25c0-5.32,4.31-9.62,9.62-9.62s9.62,4.31,9.62,9.62v19.25c0,5.32-4.31,9.62-9.62,9.62ZM265.62,204.79v-31.96c0-5.32-4.31-9.62-9.62-9.62s-9.62,4.31-9.62,9.62v31.96c0,5.32,4.31,9.62,9.62,9.62s9.62-4.31,9.62-9.62ZM265.62,140.88v-31.96c0-5.32-4.31-9.62-9.62-9.62s-9.62,4.31-9.62,9.62v31.96c0,5.32,4.31,9.62,9.62,9.62s9.62-4.31,9.62-9.62ZM265.62,256v-19.25c0-5.32-4.31-9.62-9.62-9.62s-9.62,4.31-9.62,9.62v19.25c0,5.32,4.31,9.62,9.62,9.62s9.62-4.31,9.62-9.62Z" style="fill: #92999d;"/>
  <path d="M256,284.87c-5.32,0-9.62-4.31-9.62-9.62v-19.25c0-5.32,4.31-9.62,9.62-9.62s9.62,4.31,9.62,9.62v19.25c0,5.32-4.31,9.62-9.62,9.62ZM265.62,403.07v-31.96c0-5.32-4.31-9.62-9.62-9.62s-9.62,4.31-9.62,9.62v31.96c0,5.32,4.31,9.62,9.62,9.62s9.62-4.31,9.62-9.62ZM265.62,339.16v-31.96c0-5.32-4.31-9.62-9.62-9.62s-9.62,4.31-9.62,9.62v31.96c0,5.32,4.31,9.62,9.62,9.62s9.62-4.31,9.62-9.62ZM265.62,454.28v-19.25c0-5.32-4.31-9.62-9.62-9.62s-9.62,4.31-9.62,9.62v19.25c0,5.32,4.31,9.62,9.62,9.62s9.62-4.31,9.62-9.62Z" style="fill: #92999d;"/>
  <path d="M76.97,265.62h-19.25c-5.32,0-9.62-4.31-9.62-9.62s4.31-9.62,9.62-9.62h19.25c5.32,0,9.62,4.31,9.62,9.62s-4.31,9.62-9.62,9.62ZM214.42,256c0-5.32-4.31-9.62-9.62-9.62h-31.96c-5.32,0-9.62,4.31-9.62,9.62s4.31,9.62,9.62,9.62h31.96c5.32,0,9.62-4.31,9.62-9.62ZM150.51,256c0-5.32-4.31-9.62-9.62-9.62h-31.96c-5.32,0-9.62,4.31-9.62,9.62s4.31,9.62,9.62,9.62h31.96c5.32,0,9.62-4.31,9.62-9.62ZM265.62,256c0-5.32-4.31-9.62-9.62-9.62h-19.25c-5.32,0-9.62,4.31-9.62,9.62s4.31,9.62,9.62,9.62h19.25c5.32,0,9.62-4.31,9.62-9.62Z" style="fill: #92999d;"/>
  <path d="M275.25,265.62h-19.25c-5.32,0-9.62-4.31-9.62-9.62s4.31-9.62,9.62-9.62h19.25c5.32,0,9.62,4.31,9.62,9.62s-4.31,9.62-9.62,9.62ZM412.7,256c0-5.32-4.31-9.62-9.62-9.62h-31.96c-5.32,0-9.62,4.31-9.62,9.62s4.31,9.62,9.62,9.62h31.96c5.32,0,9.62-4.31,9.62-9.62ZM348.78,256c0-5.32-4.31-9.62-9.62-9.62h-31.96c-5.32,0-9.62,4.31-9.62,9.62s4.31,9.62,9.62,9.62h31.96c5.32,0,9.62-4.31,9.62-9.62ZM463.9,256c0-5.32-4.31-9.62-9.62-9.62h-19.25c-5.32,0-9.62,4.31-9.62,9.62s4.31,9.62,9.62,9.62h19.25c5.32,0,9.62-4.31,9.62-9.62Z" style="fill: #92999d;"/>
  <path d="M256,267.23c-2.87,0-5.75-1.1-7.94-3.29-4.39-4.39-4.39-11.5,0-15.88L446.34,49.78c4.39-4.39,11.49-4.39,15.88,0,4.39,4.39,4.39,11.49,0,15.88l-198.28,198.28c-2.19,2.19-5.07,3.29-7.94,3.29Z" style="fill: #777f85;"/>
  <path d="M57.72,465.51c-2.87,0-5.75-1.1-7.94-3.29-4.39-4.39-4.39-11.5,0-15.88l198.28-198.28c4.39-4.39,11.49-4.39,15.88,0,4.39,4.39,4.39,11.5,0,15.88l-198.28,198.28c-2.19,2.19-5.07,3.29-7.94,3.29Z" style="fill: #777f85;"/>
  <path d="M256,267.23c-2.87,0-5.75-1.1-7.94-3.29L49.78,65.66c-4.39-4.39-4.39-11.49,0-15.88,4.39-4.39,11.49-4.39,15.88,0l198.28,198.28c4.39,4.39,4.39,11.5,0,15.88-2.19,2.19-5.07,3.29-7.94,3.29Z" style="fill: #777f85;"/>
  <path d="M454.28,465.51c-2.87,0-5.75-1.1-7.94-3.29l-198.28-198.28c-4.39-4.39-4.39-11.5,0-15.88,4.39-4.39,11.49-4.39,15.88,0l198.28,198.28c4.39,4.39,4.39,11.5,0,15.88-2.19,2.19-5.07,3.29-7.94,3.29Z" style="fill: #777f85;"/>
  <g>
    <circle cx="256" cy="256" r="64.17" style="fill: #c9ccce;"/>
    <path d="M256,332.96c-19.72,0-39.44-7.5-54.45-22.52-30.02-30.02-30.02-78.87,0-108.89,30.02-30.02,78.87-30.02,108.89,0,30.02,30.02,30.02,78.87,0,108.89-15.01,15.01-34.73,22.52-54.45,22.52ZM256,204.69c-13.15,0-26.29,5-36.3,15.01-20.01,20.01-20.01,52.58,0,72.6,20.01,20.01,52.58,20.02,72.6,0,20.02-20.01,20.02-52.58,0-72.6-10.01-10.01-23.15-15.01-36.3-15.01Z" style="fill: #777f85;"/>
  </g>
  <g>
    <circle cx="256" cy="57.72" r="32.08" style="fill: #e4e5e7;"/>
    <path d="M256,96.22c-21.23,0-38.5-17.27-38.5-38.5s17.27-38.5,38.5-38.5,38.5,17.27,38.5,38.5-17.27,38.5-38.5,38.5ZM256,32.06c-14.15,0-25.67,11.51-25.67,25.67s11.51,25.67,25.67,25.67,25.67-11.51,25.67-25.67-11.51-25.67-25.67-25.67Z" style="fill: #92999d;"/>
  </g>
  <g>
    <circle cx="454.28" cy="454.28" r="48.12" style="fill: #9ecff9;"/>
    <path d="M454.28,512c-14.79,0-29.58-5.63-40.84-16.89-22.52-22.52-22.52-59.15,0-81.67,22.52-22.52,59.15-22.52,81.67,0,22.52,22.52,22.52,59.15,0,81.67-11.26,11.26-26.05,16.89-40.84,16.89ZM454.28,415.79c-9.86,0-19.72,3.75-27.22,11.26-15.01,15.01-15.01,39.44,0,54.45,15.01,15.01,39.44,15.01,54.45,0,15.01-15.01,15.01-39.44,0-54.45-7.5-7.51-17.36-11.26-27.22-11.26Z" style="fill: #0c88f0;"/>
  </g>
  <g>
    <circle cx="57.72" cy="57.72" r="48.12" style="fill: #f99ea2;"/>
    <path d="M57.72,115.45c-14.79,0-29.58-5.63-40.84-16.89-22.52-22.52-22.52-59.15,0-81.67,22.52-22.52,59.15-22.52,81.67,0,22.52,22.52,22.52,59.15,0,81.67-11.26,11.26-26.05,16.89-40.84,16.89ZM57.72,19.24c-9.86,0-19.72,3.75-27.22,11.26-15.01,15.01-15.01,39.44,0,54.45,15.01,15.01,39.44,15.01,54.45,0,15.01-15.01,15.01-39.44,0-54.45-7.5-7.5-17.37-11.26-27.22-11.26Z" style="fill: #f00c16;"/>
  </g>
  <g>
    <circle cx="454.28" cy="57.72" r="48.12" style="fill: #f9de9e;"/>
    <path d="M454.28,115.45c-14.79,0-29.58-5.63-40.84-16.89-22.52-22.52-22.52-59.15,0-81.67,22.52-22.52,59.15-22.52,81.67,0,22.52,22.52,22.52,59.15,0,81.67-11.26,11.26-26.05,16.89-40.84,16.89ZM454.28,19.24c-9.86,0-19.72,3.75-27.22,11.26-15.01,15.01-15.01,39.44,0,54.45,15.01,15.01,39.44,15.01,54.45,0,15.01-15.01,15.01-39.44,0-54.45-7.5-7.5-17.36-11.26-27.22-11.26Z" style="fill: #f0ae0c;"/>
  </g>
  <g>
    <circle cx="57.72" cy="454.28" r="48.12" style="fill: #cff99e;"/>
    <path d="M57.72,512c-14.79,0-29.58-5.63-40.84-16.89-22.52-22.52-22.52-59.15,0-81.67,22.52-22.52,59.15-22.52,81.67,0,22.52,22.52,22.52,59.15,0,81.67-11.26,11.26-26.05,16.89-40.84,16.89ZM57.72,415.79c-9.86,0-19.72,3.75-27.22,11.26-15.01,15.01-15.01,39.44,0,54.45,15.01,15.01,39.44,15.01,54.45,0,15.01-15.01,15.01-39.44,0-54.45-7.5-7.5-17.37-11.26-27.22-11.26Z" style="fill: #88f00c;"/>
  </g>
  <g>
    <circle cx="454.28" cy="256" r="32.08" style="fill: #e4e5e7;"/>
    <path d="M454.28,294.5c-21.23,0-38.5-17.27-38.5-38.5s17.27-38.5,38.5-38.5,38.5,17.27,38.5,38.5-17.27,38.5-38.5,38.5ZM454.28,230.33c-14.15,0-25.67,11.51-25.67,25.67s11.51,25.67,25.67,25.67,25.67-11.51,25.67-25.67-11.51-25.67-25.67-25.67Z" style="fill: #92999d;"/>
  </g>
  <g>
    <circle cx="57.72" cy="256" r="32.08" style="fill: #e4e5e7;"/>
    <path d="M57.72,294.5c-21.23,0-38.5-17.27-38.5-38.5s17.27-38.5,38.5-38.5,38.5,17.27,38.5,38.5-17.27,38.5-38.5,38.5ZM57.72,230.33c-14.15,0-25.67,11.51-25.67,25.67s11.51,25.67,25.67,25.67,25.67-11.51,25.67-25.67-11.51-25.67-25.67-25.67Z" style="fill: #92999d;"/>
  </g>
  <g>
    <circle cx="256" cy="454.28" r="32.08" style="fill: #e4e5e7;"/>
    <path d="M256,492.78c-21.23,0-38.5-17.27-38.5-38.5s17.27-38.5,38.5-38.5,38.5,17.27,38.5,38.5-17.27,38.5-38.5,38.5ZM256,428.61c-14.15,0-25.67,11.51-25.67,25.67s11.51,25.67,25.67,25.67,25.67-11.51,25.67-25.67-11.51-25.67-25.67-25.67Z" style="fill: #92999d;"/>
  </g>
</svg>